<svg width="64" height="87" viewBox="0 0 64 87" fill="none" xmlns="http://www.w3.org/2000/svg">
<path d="M31.8664 27.4355C33.2255 32.7903 34.5847 34.129 34.5847 39.4839C34.5847 46.1373 29.1073 51.5323 22.3522 51.5323C15.5972 51.5323 10.1198 46.1373 10.1198 39.4839C10.1198 37.5294 10.6091 35.6819 11.4518 34.0353C5.62098 39.4035 1.96484 47.061 1.96484 55.5484C1.96484 71.8137 15.3526 85 31.8664 85C48.3802 85 61.7679 71.8137 61.7679 55.5484C61.7679 36.8065 45.458 27.4355 44.0988 2C44.0988 2 27.7889 12.7097 31.8664 27.4355Z" fill="#00B170"/>
<path d="M51.5191 60.9033C49.6163 67.6905 44.1932 73.032 37.3023 74.9062L51.5191 60.9033Z" fill="#00B170"/>
<path d="M51.5191 60.9033C49.6163 67.6905 44.1932 73.032 37.3023 74.9062M31.8664 27.4355C33.2255 32.7903 34.5847 34.129 34.5847 39.4839C34.5847 46.1373 29.1073 51.5323 22.3522 51.5323C15.5972 51.5323 10.1198 46.1373 10.1198 39.4839C10.1198 37.5294 10.6091 35.6819 11.4518 34.0353C5.62098 39.4036 1.96484 47.061 1.96484 55.5484C1.96484 71.8137 15.3526 85 31.8664 85C48.3802 85 61.7679 71.8137 61.7679 55.5484C61.7679 36.8065 45.458 27.4355 44.0988 2C44.0988 2 27.7889 12.7097 31.8664 27.4355Z" stroke="white" stroke-width="3" stroke-linecap="round" stroke-linejoin="round"/>
</svg>
