<svg width="99" height="76" viewBox="0 0 99 76" fill="none" xmlns="http://www.w3.org/2000/svg">
<g clip-path="url(#clip0_163_1972)">
<path d="M61.4174 36.339C56.7368 36.339 51.6676 37.4527 46.7527 39.5607C39.1503 42.8197 34.7426 44.9078 31.8262 46.2899C29.8223 47.2395 28.4964 47.8685 27.2918 48.3308C25.7674 48.9175 24.2982 49.5116 23.0468 50.1654C22.217 43.0011 23.2259 30.0423 35.5145 24.3025C38.8167 28.0512 43.8722 30.4575 49.5506 30.4575C49.6085 30.4575 49.6664 30.45 49.7243 30.4475C49.7821 30.4475 49.84 30.4575 49.8979 30.4575C50.7745 30.4575 51.6262 30.3829 52.4697 30.271C57.0869 29.6645 61.1445 27.4744 63.9368 24.3025C70.9135 27.6261 74.0753 33.8755 75.3818 39.8466C73.5736 39.3544 72.2008 38.9069 71.7047 38.6434C68.882 37.137 65.3261 36.3415 61.4201 36.3415L61.4174 36.339Z" fill="#9A9F3C"/>
<path d="M52.5336 27.8274C51.5744 27.9965 50.5875 28.1058 49.5731 28.1058C44.7079 28.1058 40.3747 26.0699 37.5465 22.898C35.4185 20.514 34.1422 17.4862 34.1422 14.1875C34.1422 6.50122 41.0528 0.269165 49.5759 0.269165C56.2632 0.269165 61.9416 4.11231 64.0834 9.47928C64.6705 10.9509 65.0068 12.5319 65.0068 14.1875C65.0068 17.4862 63.7278 20.5115 61.6025 22.898C59.3643 25.4087 56.1777 27.1861 52.5364 27.8274H52.5336Z" fill="#9A9F3C"/>
<path d="M6.67929 54.1652C10.3124 55.4603 16.8067 57.1109 20.1421 58.0829C30.7491 61.1803 43.2223 52.6314 44.0768 51.2691C44.3938 50.7645 38.3213 54.5256 30.9917 56.6535C28.0726 57.5012 24.8392 57.2924 23.2018 56.3328C18.9402 53.8296 24.2631 51.8757 28.1277 50.3891C31.2618 49.186 34.8343 47.0904 47.6713 41.5842C56.1917 37.93 64.8692 37.5869 70.4759 40.5774C72.3063 41.5519 80.8514 43.737 86.4141 44.3137V64.7723C83.6961 64.7848 79.283 64.9265 78.4064 65.0358C73.8196 65.6076 69.2245 66.1197 64.7589 67.5366C55.136 70.5892 45.852 72.9309 35.9562 74.8972C28.5467 76.3714 10.8857 66.0749 1.78649 58.1052C-2.8913 54.0085 2.64101 52.7209 6.67929 54.1602V54.1652Z" fill="#9A9F3C"/>
<path d="M90.3005 44.1173H97.4205C98.2928 44.1173 99 44.755 99 45.5417V64.6008C99 65.3875 98.2928 66.0252 97.4205 66.0252H90.3005C89.4281 66.0252 88.721 65.3875 88.721 64.6008V45.5417C88.721 44.755 89.4281 44.1173 90.3005 44.1173Z" fill="#9A9F3C"/>
</g>
<defs>
<clipPath id="clip0_163_1972">
<rect width="99" height="74.7747" fill="white" transform="matrix(-1 0 0 1 99 0.269165)"/>
</clipPath>
</defs>
</svg>
