<svg width="90" height="76" viewBox="0 0 90 76" fill="none" xmlns="http://www.w3.org/2000/svg">
<g clip-path="url(#clip0_163_1978)">
<path d="M84.3329 34.0918L89.9998 30.1551C88.5626 26.104 88.5697 26.1253 87.1325 22.0742L80.0169 21.9284C78.1057 19.5217 77.3258 18.5393 75.4146 16.1326L77.4666 9.90337C73.6982 7.39882 73.7186 7.41243 69.9502 4.90788L64.1008 8.61522C61.0055 7.69377 59.7442 7.31827 56.6489 6.39683L54.3167 0.271434C51.9749 0.270299 50.8169 0.269732 49.6533 0.269165V20.4908C60.0228 20.4908 68.4289 28.1763 68.4289 37.6565C68.4289 47.1367 60.0228 54.8223 49.6533 54.8223V75.0416C50.8061 75.0422 51.9644 75.0428 54.2842 75.0439L56.6256 68.9154C59.7222 67.9968 60.9841 67.6227 64.0807 66.7044L69.9108 70.4091C73.6833 67.9057 73.66 67.9208 77.4325 65.4176L75.3882 59.2074C77.3025 56.8001 78.0824 55.8194 79.9964 53.4122L87.1124 53.2743C88.5552 49.2244 88.5474 49.2462 89.9899 45.1963L84.3288 41.2547C84.3304 38.2808 84.3316 37.0666 84.3332 34.0924L84.3329 34.0918Z" fill="#F7931D"/>
<path d="M31.5996 11.4845C34.1452 11.4845 36.3154 10.0075 37.1542 7.9434H45.5179V4.18133H37.1539C36.3148 2.11778 34.1452 0.640747 31.5996 0.640747C28.329 0.640747 25.6689 3.07298 25.6689 6.06251C25.6689 9.05203 28.3293 11.4843 31.5996 11.4843V11.4845ZM31.5996 4.40311C32.6003 4.40311 33.4146 5.14758 33.4146 6.06279C33.4146 6.978 32.6003 7.72247 31.5996 7.72247C30.5988 7.72247 29.7839 6.978 29.7839 6.06279C29.7839 5.14758 30.5982 4.40311 31.5996 4.40311Z" fill="#F7931D"/>
<path d="M40.5443 65.8967H28.0654C27.2263 63.8331 25.056 62.3561 22.5104 62.3561C19.2405 62.3561 16.5801 64.7883 16.5801 67.7778C16.5801 70.7674 19.2405 73.1996 22.5104 73.1996C25.0566 73.1996 27.2266 71.7226 28.0657 69.6584H36.4293V75.0436H45.5179V71.2815H40.5443V65.8964V65.8967ZM22.5104 69.4378C21.5093 69.4378 20.695 68.6933 20.695 67.7781C20.695 66.8629 21.5093 66.1184 22.5104 66.1184C23.5115 66.1184 24.3261 66.8629 24.3261 67.7781C24.3261 68.6933 23.5118 69.4378 22.5104 69.4378Z" fill="#F7931D"/>
<path d="M53.1024 44.8367H41.9924V54.8413H38.4293C37.5902 52.7778 35.4206 51.3007 32.8744 51.3007C29.6047 51.3007 26.9443 53.733 26.9443 56.7225C26.9443 59.712 29.6047 62.1442 32.8744 62.1442C35.4209 62.1442 37.5908 60.6672 38.4296 58.6031H46.1074V48.5985H53.1024V44.8364V44.8367ZM32.8744 58.3825C31.8736 58.3825 31.0593 57.638 31.0593 56.7228C31.0593 55.8076 31.8736 55.0631 32.8744 55.0631C33.8751 55.0631 34.69 55.8076 34.69 56.7228C34.69 57.638 33.8757 58.3825 32.8744 58.3825Z" fill="#F7931D"/>
<path d="M11.4853 33.5034H30.1365V25.3153H26.0215V29.741H11.485C10.6459 27.6775 8.47624 26.2005 5.93064 26.2005C2.66007 26.2005 0 28.6327 0 31.6222C0 34.6117 2.66038 37.044 5.93064 37.044C8.47624 37.044 10.6465 35.5669 11.4853 33.5028V33.5034ZM4.11496 31.6228C4.11496 30.7076 4.92927 29.9631 5.93064 29.9631C6.932 29.9631 7.74569 30.7076 7.74569 31.6228C7.74569 32.538 6.93138 33.2825 5.93064 33.2825C4.92989 33.2825 4.11496 32.538 4.11496 31.6228Z" fill="#F7931D"/>
<path d="M24.2536 50.5066V44.1997H28.9139V40.4376H20.1386V46.7445H15.2037C14.3646 44.681 12.195 43.2039 9.64877 43.2039C6.37913 43.2039 3.71875 45.6362 3.71875 48.6257C3.71875 51.6152 6.37913 54.0475 9.64877 54.0475C12.1953 54.0475 14.3652 52.5704 15.204 50.5063H24.2536V50.5066ZM9.64877 50.2857C8.64802 50.2857 7.83371 49.5412 7.83371 48.626C7.83371 47.7108 8.64802 46.9663 9.64877 46.9663C10.6495 46.9663 11.4644 47.7108 11.4644 48.626C11.4644 49.5412 10.6501 50.2857 9.64877 50.2857Z" fill="#F7931D"/>
<path d="M37.248 32.2351C33.9775 32.2351 31.3174 34.6673 31.3174 37.6569C31.3174 40.6464 33.9778 43.0786 37.248 43.0786C39.7936 43.0786 41.9639 41.6016 42.8027 39.5375H59.3962V35.7754H42.8024C41.9632 33.7119 39.7936 32.2351 37.248 32.2351ZM37.248 39.3165C36.2467 39.3165 35.4323 38.5721 35.4323 37.6569C35.4323 36.7417 36.2467 35.9972 37.248 35.9972C38.2494 35.9972 39.0631 36.7417 39.0631 37.6569C39.0631 38.5721 38.2488 39.3165 37.248 39.3165Z" fill="#F7931D"/>
<path d="M16.1078 23.6189C18.6543 23.6189 20.8242 22.1419 21.663 20.0778H41.6857V28.9667H53.1232V25.2046H45.8006V16.3157H21.6627C20.8236 14.2522 18.654 12.7751 16.1078 12.7751C12.8381 12.7751 10.1777 15.2074 10.1777 18.1969C10.1777 21.1864 12.8381 23.6187 16.1078 23.6187V23.6189ZM16.1078 16.5375C17.1091 16.5375 17.9234 17.282 17.9234 18.1972C17.9234 19.1124 17.1091 19.8569 16.1078 19.8569C15.1064 19.8569 14.2927 19.1124 14.2927 18.1972C14.2927 17.282 15.107 16.5375 16.1078 16.5375Z" fill="#F7931D"/>
</g>
<defs>
<clipPath id="clip0_163_1978">
<rect width="90" height="74.7747" fill="white" transform="translate(0 0.269165)"/>
</clipPath>
</defs>
</svg>
