<svg width="90" height="76" viewBox="0 0 90 76" fill="none" xmlns="http://www.w3.org/2000/svg">
<g clip-path="url(#clip0_163_1987)">
<path d="M42.9571 51.1648C43.0293 50.5754 43.0669 49.9774 43.0669 49.3709C43.0669 40.3682 34.9106 33.0702 24.8491 33.0702C23.9367 33.0702 23.041 33.1308 22.1644 33.2468V27.0928C22.1644 25.6019 23.515 24.3934 25.1813 24.3934C27.7964 24.3934 29.2639 24.3934 30.0907 24.3934C31.3455 24.3934 31.1232 24.3934 31.1935 24.3951C31.7563 22.6149 32.5607 20.8833 33.567 19.274C33.4833 19.2026 33.9567 19.625 29.3119 15.469C28.1337 14.4148 28.1337 12.7055 29.3119 11.6514L34.8832 6.66638C35.4722 6.13929 36.2447 5.87575 37.0165 5.87575C37.7889 5.87575 38.5607 6.13929 39.1498 6.66638C43.7838 10.8127 43.3251 10.4011 43.4043 10.4754C45.2169 9.56933 47.14 8.86388 49.1264 8.36882C49.1232 8.26591 49.1244 8.78099 49.1244 2.96994C49.1244 1.47902 50.4751 0.270508 52.1414 0.270508H60.0204C61.6867 0.270508 63.0373 1.47902 63.0373 2.96994C63.0373 8.89418 63.038 8.2379 63.0361 8.34138C65.0045 8.82958 66.9296 9.5356 68.7664 10.4674C68.8489 10.3914 68.3301 10.8562 73.0114 6.66695C73.6004 6.13987 74.3729 5.87633 75.1447 5.87633C75.9165 5.87633 76.6889 6.13987 77.278 6.66695L82.8493 11.6519C84.0274 12.7061 84.0274 14.4154 82.8493 15.4696C78.1891 19.6393 78.683 19.1986 78.598 19.2717C79.6343 20.9124 80.4214 22.6338 80.9671 24.3956C81.0361 24.3945 80.822 24.3939 82.0679 24.3939C82.894 24.3939 84.3622 24.3939 86.9811 24.3939C88.6474 24.3939 89.998 25.6024 89.998 27.0934V34.1432C89.998 35.6341 88.6474 36.8427 86.9811 36.8427C84.4255 36.8427 82.9643 36.8427 82.126 36.8427C80.8342 36.8427 81.0182 36.8427 80.9479 36.8404C80.3972 38.6188 79.6113 40.3413 78.5986 41.9654C78.6798 42.0352 78.2012 41.6081 82.8499 45.767C84.0281 46.8212 84.0281 48.5305 82.8499 49.5847L77.2786 54.5696C76.6896 55.0967 75.9171 55.3603 75.1453 55.3603C74.3735 55.3603 73.6011 55.0967 73.012 54.5696C68.3652 50.4113 68.8406 50.8383 68.7601 50.7635C66.9519 51.6673 65.0243 52.3841 63.0354 52.8815C63.038 52.985 63.0373 52.4024 63.0373 58.2667C63.0373 59.7576 61.6867 60.9661 60.0204 60.9661H52.1414C50.4751 60.9661 49.1244 59.7576 49.1244 58.2667C49.1244 52.355 49.1238 52.997 49.1257 52.8924C47.0908 52.3887 45.1728 51.6696 43.3953 50.7692C43.3532 50.808 43.4669 50.7069 42.9558 51.1648H42.9571ZM56.0822 42.9498C63.682 42.9498 69.8647 37.4178 69.8647 30.6177C69.8647 23.8177 63.682 18.2856 56.0822 18.2856C48.4823 18.2856 42.2996 23.8177 42.2996 30.6177C42.2996 37.4178 48.4823 42.9498 56.0822 42.9498Z" fill="#958283"/>
<path d="M14.2865 60.4948C14.3747 60.5617 14.4635 60.6274 14.5516 60.692C15.2506 61.2059 15.993 61.665 16.7757 62.0669C17.3456 62.3596 17.9366 62.622 18.5467 62.8529C20.5644 63.6167 22.7067 64.0037 24.9128 64.0037C27.119 64.0037 29.2612 63.6167 31.2789 62.8529C31.8891 62.622 32.4801 62.3596 33.05 62.0669C34.2754 61.438 35.4024 60.6686 36.4183 59.7682C38.6123 60.3261 40.6147 61.083 42.3646 62.0669C46.9686 64.6554 49.8252 68.8143 49.8252 75.0438H-0.000816345C-0.000816345 68.8143 2.85511 64.6554 7.45974 62.0669C9.20779 61.0842 11.2082 60.3273 13.4003 59.7699C13.4041 59.7733 13.4073 59.7768 13.4112 59.7796C13.691 60.026 13.9856 60.2667 14.2852 60.4948H14.2865Z" fill="#958283"/>
<path d="M35.5885 57.4261C35.2991 57.7342 34.9937 58.0304 34.673 58.3122C34.4308 58.5254 34.1804 58.7301 33.9216 58.9273C33.8079 59.0142 33.6922 59.0994 33.5747 59.1829C31.1807 60.8899 28.1478 61.9103 24.8485 61.9103C21.5491 61.9103 18.5169 60.8899 16.1222 59.1829C16.0053 59.0994 15.8897 59.0142 15.7753 58.9273C15.5165 58.7307 15.2661 58.5254 15.0239 58.3122C14.7032 58.0304 14.3978 57.7342 14.1084 57.4261C12.0652 55.2469 10.8333 52.4377 10.8333 49.3707C10.8333 42.4454 17.1081 36.8311 24.8478 36.8311C32.5876 36.8311 38.8623 42.4454 38.8623 49.3707C38.8623 52.4377 37.6311 55.2469 35.5873 57.4261H35.5885Z" fill="#958283"/>
</g>
<defs>
<clipPath id="clip0_163_1987">
<rect width="90" height="74.7747" fill="white" transform="matrix(-1 0 0 1 90 0.269165)"/>
</clipPath>
</defs>
</svg>
