<svg width="97" height="76" viewBox="0 0 97 76" fill="none" xmlns="http://www.w3.org/2000/svg">
<g clip-path="url(#clip0_163_1992)">
<path d="M51.0606 42.261L50.3706 40.3183C50.3142 40.1576 50.4157 39.9393 50.6187 39.7853L52.3353 38.4891C52.5384 38.3351 52.796 38.2826 52.9614 38.3622L54.9657 39.3115C55.1406 39.3944 55.3568 39.3504 55.4752 39.2066C56.3213 38.1845 56.9625 37.0609 57.3949 35.8848C57.4569 35.7156 57.3723 35.5311 57.1975 35.4499L55.1857 34.5158C55.0184 34.438 54.9187 34.2197 54.9413 33.9811L55.1368 31.9707C55.1594 31.7321 55.3004 31.5324 55.479 31.4817L57.6412 30.8776C57.8311 30.8251 57.9495 30.6559 57.9195 30.4799C57.722 29.2531 57.3065 28.0465 56.6691 26.9077C56.5808 26.7486 56.3758 26.6708 56.1859 26.7249L54.0275 27.346C53.8489 27.3967 53.6063 27.3053 53.4352 27.1226L51.995 25.5776C51.8239 25.3949 51.7657 25.163 51.854 25.0141L52.9088 23.2102C53.0009 23.0529 52.952 22.8583 52.7922 22.7516C51.6566 21.9902 50.4082 21.4131 49.1014 21.0239C48.9134 20.9681 48.7085 21.0442 48.6182 21.2016L47.5804 23.0122C47.4939 23.1629 47.2514 23.2525 46.9863 23.2322L44.7526 23.0562C44.4875 23.0359 44.2656 22.909 44.2092 22.7483L43.538 20.8022C43.4797 20.6313 43.2917 20.5247 43.0962 20.5518C41.7331 20.7295 40.3925 21.1035 39.1271 21.6771C38.9504 21.7566 38.8639 21.9411 38.9241 22.112L39.6141 24.0546C39.6705 24.2154 39.569 24.4337 39.3659 24.5877L37.6493 25.8839C37.4463 26.0379 37.1887 26.0903 37.0232 26.0108L35.019 25.0615C34.8441 24.9786 34.6279 25.0226 34.5094 25.1664C33.6633 26.1885 33.0222 27.3121 32.5898 28.4882C32.5277 28.6574 32.6123 28.8419 32.7872 28.9231L34.799 29.8572C34.9663 29.935 35.066 30.1533 35.0434 30.3919L34.8479 32.4022C34.8253 32.6408 34.6843 32.8405 34.5057 32.8913L32.3435 33.4954C32.1536 33.5479 32.0351 33.7171 32.0652 33.8931C32.2626 35.1199 32.6781 36.3264 33.3155 37.4653C33.4039 37.6244 33.6088 37.7022 33.7987 37.648L35.9572 37.027C36.1358 36.9762 36.3783 37.0676 36.5494 37.2504L37.9896 38.7954C38.1607 38.9781 38.219 39.2099 38.1306 39.3589L37.0759 41.1627C36.9837 41.3201 37.0326 41.5147 37.1924 41.6213C38.3281 42.3828 39.5765 42.9598 40.8832 43.349C41.0712 43.4049 41.2762 43.3287 41.3664 43.1714L42.4043 41.3607C42.4908 41.2101 42.7333 41.1204 42.9984 41.1407L45.2321 41.3167C45.4972 41.337 45.719 41.4639 45.7754 41.6247L46.4466 43.5707C46.5049 43.7416 46.6929 43.8482 46.8885 43.8212C48.2516 43.6435 49.5922 43.2695 50.8575 42.6959C51.0343 42.6163 51.1208 42.4319 51.0606 42.261ZM40.0672 35.9051C37.7828 33.4565 38.1382 29.8047 40.8607 27.7487C43.5813 25.6927 47.6387 26.0125 49.9231 28.4628C52.2075 30.9114 51.8521 34.5632 49.1296 36.6192C46.409 38.6752 42.3516 38.3554 40.0672 35.9051Z" fill="#1B75BB"/>
<path d="M68.568 24.0275L67.6073 23.0071C67.5283 22.9225 67.5283 22.7669 67.6073 22.6281L68.2841 21.4554C68.365 21.3166 68.506 21.227 68.6282 21.2371L70.1079 21.3573C70.2376 21.3674 70.3561 21.2913 70.3881 21.1779C70.6156 20.3673 70.6889 19.5415 70.6231 18.7327C70.6137 18.6159 70.5103 18.5228 70.3824 18.5144L68.9027 18.4044C68.7805 18.3959 68.6583 18.2859 68.6057 18.1353L68.1638 16.8746C68.1112 16.7257 68.1412 16.5717 68.2353 16.5007L69.3746 15.6461C69.4743 15.5716 69.4987 15.443 69.4329 15.3415C68.9704 14.6443 68.3819 14.0064 67.6787 13.4615C67.581 13.3853 67.4343 13.3853 67.3365 13.4615L66.2028 14.3262C66.1088 14.3973 65.9358 14.3973 65.7816 14.3262L64.4787 13.717C64.3245 13.6442 64.2248 13.5173 64.2361 13.4073L64.3696 12.0756C64.3809 11.9588 64.2963 11.8522 64.1703 11.8234C63.2697 11.6187 62.3522 11.5527 61.4535 11.6119C61.3237 11.6204 61.2203 11.7134 61.2109 11.8285L61.0887 13.1603C61.0793 13.2702 60.9571 13.3802 60.7898 13.4276L59.389 13.8253C59.2236 13.8727 59.0525 13.8456 58.9735 13.761L58.024 12.7355C57.9413 12.6458 57.7984 12.6238 57.6856 12.6831C56.911 13.0993 56.2022 13.629 55.5967 14.2619C55.5121 14.3499 55.5121 14.4819 55.5967 14.5699L56.5575 15.5902C56.6365 15.6749 56.6365 15.8305 56.5575 15.9693L55.8806 17.142C55.7998 17.2808 55.6588 17.3704 55.5366 17.3603L54.0569 17.2401C53.9271 17.23 53.8087 17.3061 53.7767 17.4195C53.5492 18.2301 53.4759 19.0559 53.5417 19.8647C53.5511 19.9815 53.6545 20.0746 53.7824 20.083L55.2621 20.193C55.3843 20.2015 55.5065 20.3115 55.5591 20.4621L56.001 21.7228C56.0536 21.8717 56.0235 22.0257 55.9295 22.0967L54.7901 22.9513C54.6905 23.0258 54.666 23.1544 54.7319 23.2559C55.1944 23.9531 55.7829 24.591 56.4861 25.1359C56.5838 25.2121 56.7305 25.2121 56.8282 25.1359L57.962 24.2712C58.056 24.2001 58.229 24.2001 58.3831 24.2712L59.6861 24.8804C59.8403 24.9532 59.9399 25.0801 59.9287 25.1901L59.7952 26.5218C59.7839 26.6386 59.8685 26.7452 59.9945 26.774C60.8951 26.9787 61.8126 27.0447 62.7113 26.9855C62.841 26.977 62.9444 26.884 62.9538 26.7689L63.0761 25.4371C63.0855 25.3271 63.2077 25.2171 63.375 25.1698L64.7757 24.7721C64.9412 24.7247 65.1123 24.7518 65.1913 24.8364L66.1407 25.8619C66.2235 25.9516 66.3664 25.9736 66.4792 25.9143C67.2538 25.4981 67.9626 24.9684 68.568 24.3355C68.6527 24.2475 68.6527 24.1155 68.568 24.0275ZM60.1374 22.6653C58.071 21.6991 57.2663 19.4078 58.3399 17.5481C59.4135 15.6884 61.9592 14.9641 64.0255 15.9304C66.0919 16.8966 66.8966 19.1879 65.823 21.0476C64.7494 22.9073 62.2037 23.6316 60.1374 22.6653Z" fill="#1B75BB"/>
<path d="M37.1376 22.0544L36.4495 21.3234C36.393 21.2625 36.393 21.1525 36.4495 21.0527L36.9345 20.2116C36.9928 20.1118 37.0925 20.0475 37.1808 20.0543L38.2413 20.1406C38.3334 20.1473 38.4199 20.0932 38.4424 20.012C38.606 19.4315 38.6587 18.8393 38.6098 18.2588C38.6022 18.1759 38.5289 18.1082 38.4368 18.1015L37.3764 18.0219C37.288 18.0152 37.2015 17.9373 37.1639 17.829L36.8462 16.9254C36.8086 16.8188 36.8292 16.7088 36.8969 16.658L37.7129 16.0454C37.7844 15.9913 37.8013 15.8999 37.7543 15.8272C37.4234 15.328 37.0022 14.8711 36.4983 14.4802C36.4269 14.426 36.3235 14.4243 36.252 14.4802L35.4398 15.0995C35.3721 15.1503 35.2499 15.1503 35.139 15.0995L34.2045 14.6629C34.0936 14.6105 34.0221 14.5208 34.0297 14.4412L34.1256 13.4868C34.1331 13.4039 34.0729 13.3261 33.9827 13.3058C33.3378 13.1586 32.6797 13.1112 32.0348 13.1552C31.9427 13.1619 31.8675 13.2279 31.8599 13.3109L31.7716 14.2653C31.7641 14.3448 31.6776 14.4226 31.5572 14.4565L30.5532 14.7425C30.4348 14.7763 30.3126 14.7577 30.2562 14.6968L29.5755 13.9624C29.5154 13.898 29.4138 13.8828 29.333 13.9251C28.7783 14.223 28.2707 14.602 27.8364 15.0555C27.7762 15.1198 27.7743 15.2129 27.8364 15.2772L28.5245 16.0082C28.5809 16.0691 28.5809 16.1791 28.5245 16.279L28.0394 17.12C27.9812 17.2198 27.8815 17.2841 27.7931 17.2774L26.7327 17.1911C26.6406 17.1843 26.5541 17.2384 26.5315 17.3197C26.368 17.9001 26.3153 18.4924 26.3642 19.0728C26.3717 19.1557 26.4451 19.2234 26.5372 19.2302L27.5976 19.3097C27.686 19.3165 27.7725 19.3943 27.8101 19.5026L28.1278 20.4062C28.1654 20.5128 28.1447 20.6228 28.077 20.6736L27.261 21.2862C27.1896 21.3403 27.1727 21.4317 27.2197 21.5045C27.5506 22.0037 27.9718 22.4606 28.4756 22.8515C28.5452 22.9056 28.6505 22.9073 28.7219 22.8515L29.5342 22.2321C29.6019 22.1813 29.7241 22.1813 29.835 22.2321L30.7694 22.6687C30.8804 22.7212 30.9518 22.8108 30.9443 22.8904L30.8484 23.8448C30.8409 23.9277 30.9011 24.0055 30.9913 24.0258C31.6362 24.1731 32.2943 24.2204 32.9392 24.1764C33.0313 24.1697 33.1065 24.1037 33.114 24.0208L33.2024 23.0664C33.2099 22.9868 33.2964 22.909 33.4167 22.8751L34.4207 22.5892C34.5392 22.5553 34.6614 22.5739 34.7178 22.6349L35.3984 23.3693C35.4586 23.4336 35.5601 23.4488 35.641 23.4065C36.1956 23.1087 36.7033 22.7296 37.1376 22.2761C37.1978 22.2118 37.1996 22.1187 37.1376 22.0544ZM31.0966 21.078C29.615 20.3859 29.0397 18.7445 29.8087 17.411C30.5777 16.0776 32.4014 15.5598 33.883 16.2519C35.3646 16.944 35.9399 18.5854 35.1709 19.9189C34.4019 21.2523 32.5782 21.7701 31.0966 21.078Z" fill="#1B75BB"/>
<path d="M89.3684 0.269165H7.63162C3.41627 0.269165 0 3.34388 0 7.13778V53.7764C0 55.4516 0.667461 56.9882 1.77676 58.1812C3.17373 59.6855 5.27953 60.645 7.63162 60.645H89.3684C91.7205 60.645 93.8263 59.6872 95.2232 58.1812C96.3325 56.9882 97 55.4516 97 53.7764V7.13778C97 3.34388 93.5837 0.269165 89.3684 0.269165ZM5.59351 49.8353V7.13778C5.59351 6.12754 6.50916 5.30683 7.63162 5.30683H89.3684C90.4908 5.30683 91.4027 6.12754 91.4027 7.13778V49.8353H5.59351Z" fill="#1B75BB"/>
<path d="M64.5047 70.1975V64.1766C64.5047 63.7553 64.1249 63.4135 63.6567 63.4135H33.3427C32.8745 63.4135 32.4947 63.7553 32.4947 64.1766V70.1975H11.6041C10.6678 70.1975 9.9082 70.8811 9.9082 71.7238V73.5175C9.9082 74.3603 10.6678 75.0439 11.6041 75.0439H85.3953C86.3316 75.0439 87.0912 74.3603 87.0912 73.5175V71.7238C87.0912 70.8811 86.3316 70.1975 85.3953 70.1975H64.5047Z" fill="#1B75BB"/>
</g>
<defs>
<clipPath id="clip0_163_1992">
<rect width="97" height="74.7747" fill="white" transform="translate(0 0.269165)"/>
</clipPath>
</defs>
</svg>
