<svg width="256" height="89" viewBox="0 0 256 89" fill="none" xmlns="http://www.w3.org/2000/svg">
<g clip-path="url(#clip0_163_2039)">
<mask id="mask0_163_2039" style="mask-type:luminance" maskUnits="userSpaceOnUse" x="0" y="0" width="256" height="89">
<path d="M256 6.10352e-05H0V89.0001H256V6.10352e-05Z" fill="white"/>
</mask>
<g mask="url(#mask0_163_2039)">
<path d="M11.9758 85.048C13.515 85.048 15.5177 84.7145 15.5177 83.0452C15.5177 81.3759 13.6379 80.9292 12.068 80.9292H3.35511V85.048H11.9758ZM3.35511 75.0833V78.174H10.9283C12.1602 78.174 14.0068 77.9795 14.0068 76.6992C14.0068 75.141 11.7913 75.0855 10.3112 75.0855H3.35511V75.0833ZM12.0372 87.833H0V72.3026H10.3443C13.515 72.3026 17.518 72.916 17.518 76.6714C17.518 77.5072 16.9954 78.4241 16.3783 79.0653C17.8892 79.8177 19.0265 81.4593 19.0265 82.9896C19.0265 86.4394 15.2387 87.833 12.0372 87.833Z" fill="white"/>
</g>
<path d="M31.7137 78.3685L38.7029 72.3004H43.5358L33.409 81.1515V87.8309H30.0539V81.1515L19.9531 72.3004H24.7884L31.7137 78.3685Z" fill="white"/>
<path d="M63.3045 78.3685L70.2961 72.3004H75.129L64.9998 81.1515V87.8309H61.6424V81.1515L51.5439 72.3004H56.3792L63.3045 78.3685Z" fill="white"/>
<mask id="mask1_163_2039" style="mask-type:luminance" maskUnits="userSpaceOnUse" x="0" y="0" width="256" height="89">
<path d="M256 6.10352e-05H0V89.0001H256V6.10352e-05Z" fill="white"/>
</mask>
<g mask="url(#mask1_163_2039)">
<path d="M81.4117 78.4519H88.1858C90.7701 78.4519 91.7253 77.8663 91.7253 76.7548C91.7253 75.6433 90.7725 75.0833 88.1858 75.0833H81.4117V78.4519ZM81.4117 87.833H78.0566V72.3026H88.4932C91.6331 72.3026 95.2341 73.3884 95.2341 76.7569C95.2341 79.1487 93.5412 80.3734 91.4487 80.9035L96.3761 87.8352H92.3732L87.7555 81.2391H81.4141V87.8352L81.4117 87.833Z" fill="white"/>
</g>
<path d="M107.521 80.2602H100.471V83.0153H107.521V80.2602Z" fill="white"/>
<mask id="mask2_163_2039" style="mask-type:luminance" maskUnits="userSpaceOnUse" x="0" y="0" width="256" height="89">
<path d="M256 6.10352e-05H0V89.0001H256V6.10352e-05Z" fill="white"/>
</mask>
<g mask="url(#mask2_163_2039)">
<path d="M118.301 88.3888C115.069 88.3888 111.711 87.6642 109.926 86.5506V82.9042C111.621 84.2678 115.284 85.6037 118.362 85.6037C121.717 85.6037 123.843 84.6013 123.843 83.571C123.843 82.2907 121.195 81.8739 118.393 81.4828C114.328 80.8971 109.526 80.1191 109.526 76.3893C109.526 73.1896 113.96 71.8537 118.024 71.8537C120.887 71.8537 124.03 72.4094 125.63 73.4952V76.8082C123.382 75.389 120.613 74.6388 117.75 74.6388C116.272 74.6388 113.101 75 113.101 76.4171C113.101 77.8342 115.842 78.2553 118.828 78.6721C122.892 79.2577 127.356 79.869 127.356 83.4022C127.356 86.9353 122.8 88.3866 118.305 88.3866" fill="white"/>
</g>
<path d="M140.87 78.3685L147.859 72.3004H152.692L142.563 81.1515V87.8309H139.208V81.1515L129.109 72.3004H133.945L140.87 78.3685Z" fill="white"/>
<path d="M155.774 87.8309H159.13V77.3939L175.784 89.0001V72.3004H172.429V82.8507L155.774 71.0201V87.8309Z" fill="white"/>
<mask id="mask3_163_2039" style="mask-type:luminance" maskUnits="userSpaceOnUse" x="0" y="0" width="256" height="89">
<path d="M256 6.10352e-05H0V89.0001H256V6.10352e-05Z" fill="white"/>
</mask>
<g mask="url(#mask3_163_2039)">
<path d="M184.469 78.4519H191.243C193.83 78.4519 194.785 77.8663 194.785 76.7548C194.785 75.6433 193.83 75.0833 191.243 75.0833H184.469V78.4519ZM184.469 87.833H181.114V72.3026H191.553C194.693 72.3026 198.294 73.3884 198.294 76.7569C198.294 79.1487 196.601 80.3735 194.509 80.9035L199.434 87.8352H195.431L190.815 81.2391H184.472V87.8352L184.469 87.833Z" fill="white"/>
<path d="M224.621 80.818C224.621 85.9093 219.819 88.3888 213.97 88.3888C207.288 88.3888 201.899 84.659 201.899 80.0656C201.899 75.4723 207.288 71.719 213.97 71.719C216.987 71.719 219.85 72.5526 222.129 73.9719V78.0629C220.188 75.8635 217.11 74.4998 213.97 74.4998C209.229 74.4998 205.411 76.9771 205.411 80.0656C205.411 83.1542 209.229 85.6058 213.97 85.6058C216.956 85.6058 220.342 84.8257 220.959 82.7673H215.757V80.0122H224.624V80.8202L224.621 80.818Z" fill="white"/>
</g>
<path d="M234.784 80.5124H240.05L237.402 76.8103L234.784 80.5124ZM242.019 83.2974H232.784L229.552 87.833H225.549L237.402 71.1889L249.254 87.833H245.252L242.019 83.2974Z" fill="white"/>
<path d="M256 72.3004H252.645V87.8309H256V72.3004Z" fill="white"/>
<mask id="mask4_163_2039" style="mask-type:luminance" maskUnits="userSpaceOnUse" x="0" y="0" width="176" height="48">
<path d="M96.3145 6.10352e-05L88.2778 10.9885V29.2827H155.55V36.6205H79.4302H12.1578V29.2827H79.4302V18.2921H12.1578V10.9885H79.4302L87.4668 6.10352e-05H0V47.6089H79.4302H167.706V18.2921H100.433V10.9885H167.706L175.742 6.10352e-05H96.3145Z" fill="white"/>
</mask>
<g mask="url(#mask4_163_2039)">
<path d="M175.742 6.10352e-05H0V47.6089H175.742V6.10352e-05Z" fill="url(#paint0_linear_163_2039)"/>
</g>
<mask id="mask5_163_2039" style="mask-type:luminance" maskUnits="userSpaceOnUse" x="176" y="0" width="80" height="48">
<path d="M184.592 6.10352e-05L176.551 10.9885V47.6089H255.983V18.2921H196.823V29.2827H243.828V36.6205H188.709V10.9885H247.06L255.983 6.10352e-05H184.592Z" fill="white"/>
</mask>
<g mask="url(#mask5_163_2039)">
<path d="M255.981 6.10352e-05H176.551V47.6089H255.981V6.10352e-05Z" fill="url(#paint1_linear_163_2039)"/>
</g>
</g>
<defs>
<linearGradient id="paint0_linear_163_2039" x1="-3.04182" y1="22.2329" x2="256.306" y2="22.2329" gradientUnits="userSpaceOnUse">
<stop stop-color="#1C75BC"/>
<stop offset="0.05" stop-color="#2676B4"/>
<stop offset="0.13" stop-color="#417AA0"/>
<stop offset="0.24" stop-color="#6E8080"/>
<stop offset="0.36" stop-color="#AB8953"/>
<stop offset="0.5" stop-color="#F7941D"/>
<stop offset="1" stop-color="#00B170"/>
</linearGradient>
<linearGradient id="paint1_linear_163_2039" x1="-3.04196" y1="88274.7" x2="256.305" y2="88274.7" gradientUnits="userSpaceOnUse">
<stop stop-color="#1C75BC"/>
<stop offset="0.05" stop-color="#2676B4"/>
<stop offset="0.13" stop-color="#417AA0"/>
<stop offset="0.24" stop-color="#6E8080"/>
<stop offset="0.36" stop-color="#AB8953"/>
<stop offset="0.5" stop-color="#F7941D"/>
<stop offset="1" stop-color="#00B170"/>
</linearGradient>
<clipPath id="clip0_163_2039">
<rect width="256" height="89" fill="white"/>
</clipPath>
</defs>
</svg>
